<svg xmlns="http://www.w3.org/2000/svg" viewBox="0 0 807.91 178.51"><defs><style>.cls-1{fill:#488caa;}</style></defs><g id="Calque_2" data-name="Calque 2"><path class="cls-1" d="M449.17,184.84c-5.43.56-15.79,3.58-15.79,4.65,0,.23,7.39,12.4,16.4,27s18.48,30,21,34c14.35,23.37,33.3,54.11,36,58.53,4.32,6.92,7.62,10.82,12.31,14.3a45.23,45.23,0,0,0,23.18,9.1,49.62,49.62,0,0,0,14.35-.93c3.9-1,9.56-2.92,9.56-3.29a63.52,63.52,0,0,0-3.34-5.81c-3.48-5.76-38.46-63.77-45.42-75.38-14.82-24.71-24.94-41.38-26.2-43.19a56.57,56.57,0,0,0-11.38-11.15c-6-4-14.07-7.11-20.15-7.66C453.91,184.57,452.61,184.52,449.17,184.84Z" transform="translate(-433.38 -184.64)"/><path class="cls-1" d="M623.11,185.5c-8.73,1.48-15.37,5.15-21.92,12-5,5.3-5.48,7.9-2.32,13.75,3.2,6,20.52,36.23,20.76,36.23s4.59-7.76,10-17.28,12.5-22.15,15.93-28.14,6.09-11.1,6-11.38c-.27-.75-8.77-3.81-12.86-4.6A46.9,46.9,0,0,0,623.11,185.5Z" transform="translate(-433.38 -184.64)"/><path class="cls-1" d="M522.32,186.28c-3.48.33-12,2.33-12.72,3-.19.18.65,1.62,17.6,30.19,5.43,9.19,13.24,22.34,17.32,29.26,9.62,16.3,11.66,19.36,15.75,23.4a47.51,47.51,0,0,0,47.47,11.8c2-.65,3.9-1.25,4.08-1.39s-1.67-3.48-4.13-7.48-9.06-14.81-14.68-24-11-18-11.93-19.51-4.69-7.71-8.36-13.7C565.24,205.56,563.43,203,559.2,199A47.2,47.2,0,0,0,522.32,186.28Z" transform="translate(-433.38 -184.64)"/><path d="M683.72,331.55l-31.13-83.74H667l27.65,75.84h-6.79l28.75-75.84h12.8l28.12,75.84h-6.63l28.28-75.84h13.59l-31.29,83.74H746.92l-26.39-69.2H725l-26.71,69.2Z" transform="translate(-433.38 -184.64)"/><path d="M843.93,332.5A44.91,44.91,0,0,1,821.57,327,40.84,40.84,0,0,1,806,311.72a42.82,42.82,0,0,1-5.69-22,42.29,42.29,0,0,1,5.69-22,41.37,41.37,0,0,1,15.48-15.09A44.81,44.81,0,0,1,843.93,247a45.49,45.49,0,0,1,22.35,5.45,39.91,39.91,0,0,1,15.49,15.09,46.41,46.41,0,0,1,0,44.24A40.39,40.39,0,0,1,866.28,327,44.9,44.9,0,0,1,843.93,332.5Zm0-13.27a28.65,28.65,0,0,0,14.45-3.64,25.67,25.67,0,0,0,10-10.35,32.19,32.19,0,0,0,3.63-15.56,31.64,31.64,0,0,0-3.63-15.56,26,26,0,0,0-10-10.19,28.65,28.65,0,0,0-14.45-3.64,28.25,28.25,0,0,0-14.38,3.64,27.17,27.17,0,0,0-10.11,10.19,30.53,30.53,0,0,0-3.79,15.56,31.05,31.05,0,0,0,3.79,15.56,26.84,26.84,0,0,0,10.11,10.35A28.25,28.25,0,0,0,843.93,319.23Z" transform="translate(-433.38 -184.64)"/><path d="M908.39,331.55V247.81h14.54v22.75l-1.43-5.68a25.75,25.75,0,0,1,11.7-13.28q8.2-4.57,20.22-4.58v14.69a11.64,11.64,0,0,0-1.82-.15h-1.66q-12.16,0-19.27,7.26t-7.11,21v41.71Z" transform="translate(-433.38 -184.64)"/><path class="cls-1" d="M973.17,331.55V214.31h15.17V331.55Zm12.32-20.22.32-19.44L1034,247.81h18.33l-37,36.34-8.22,7Zm51.67,20.22-32.87-40.76,9.8-12.17,41.71,52.93Z" transform="translate(-433.38 -184.64)"/><path class="cls-1" d="M1107.78,332.5q-13.42,0-23.62-5.53a39.87,39.87,0,0,1-15.8-15.17,43.15,43.15,0,0,1-5.61-22.12,44.11,44.11,0,0,1,5.46-22.12,39.39,39.39,0,0,1,15-15.09,42.84,42.84,0,0,1,21.57-5.45,42.3,42.3,0,0,1,21.49,5.37,38.1,38.1,0,0,1,14.61,15.09q5.3,9.72,5.3,22.67c0,.64,0,1.37-.08,2.22s-.13,1.63-.24,2.37H1074.6V283.83H1138l-6.16,3.8a28.17,28.17,0,0,0-3.32-14.38,25.38,25.38,0,0,0-9.56-9.88,29.78,29.78,0,0,0-28.2,0,25,25,0,0,0-9.64,10,30.08,30.08,0,0,0-3.47,14.61v2.53a28.7,28.7,0,0,0,3.87,14.93,26.53,26.53,0,0,0,10.82,10.19,33.84,33.84,0,0,0,16,3.64,35,35,0,0,0,13.51-2.53,29.42,29.42,0,0,0,10.66-7.59l8.38,9.8A36.74,36.74,0,0,1,1126.67,329,49.2,49.2,0,0,1,1107.78,332.5Z" transform="translate(-433.38 -184.64)"/><path class="cls-1" d="M1170.83,363.15a35.62,35.62,0,0,1-11.7-2,27.61,27.61,0,0,1-9.79-5.77l6.48-11.38a22.61,22.61,0,0,0,7,4.58,20.61,20.61,0,0,0,8.06,1.58,14.39,14.39,0,0,0,9.16-2.84q3.63-2.85,6.79-10.11L1192,325.7l1.58-1.89,32.86-76h14.85l-40.6,92.11a48.88,48.88,0,0,1-8.14,13.91,26.24,26.24,0,0,1-9.87,7.19A32,32,0,0,1,1170.83,363.15Zm19.9-28.91-38.23-86.43h15.8l32.55,74.58Z" transform="translate(-433.38 -184.64)"/></g></svg>