<svg id="Calque_1" data-name="Calque 1" xmlns="http://www.w3.org/2000/svg" viewBox="0 0 869.53 869.29"><defs><style>.cls-1{fill:#fff;}</style></defs><path class="cls-1" d="M469.6,64c-86.2,6.7-165.9,37-233.1,88.5A434.69,434.69,0,0,0,69,553.5C88.9,709.3,192.3,842.7,339,901.7a436.32,436.32,0,0,0,205.5,28.8c84.7-8.9,161.6-40.7,229.5-94.9,16.7-13.4,50.9-47.7,64.4-64.6,75.7-95,108.1-210,93-329.5C910.9,279.3,796.8,139.9,641.1,86.6,609,75.6,578.5,68.9,542.5,65,529.2,63.6,483.3,62.9,469.6,64Zm49.9,46c66.4,3.7,126.4,22.1,182.6,56.2,61.1,37.1,113.2,93.6,145.4,157.7A387.65,387.65,0,0,1,861,641.5c-7.9,19.8-20.1,44.1-30.6,60.6l-2.5,4-9.7-19.3C803,656.6,787.7,634,766,609.5a353.8,353.8,0,0,0-128.5-90.8c-19.3-7.9-17.4-7.8-29.7-.9-51.1,28.4-114.5,34.1-170,15.2-13-4.5-29.7-11.9-38.7-17.5-3.2-1.9-6.5-3.5-7.3-3.5-2.6,0-26.6,9.8-40.1,16.5A354.12,354.12,0,0,0,219.4,641.6c-13.7,19.6-27.6,44.6-36,65.1-2,4.8-3.8,8.9-3.9,9.1-1.2,1.4-21.2-32.6-29.7-50.6-27.1-57.1-39-113.3-37.5-177.2,1.4-56.9,13.4-107.3,37.6-157.6A392,392,0,0,1,272.2,183.7c25.9-18.8,63.1-38.9,92.1-49.7A395.34,395.34,0,0,1,480,110c8-.4,15.9-.8,17.5-.8S509.1,109.5,519.5,110Z" transform="translate(-65.48 -63.46)"/><path class="cls-1" d="M480.9,175.5c-45.8,7.2-85,31.8-111.7,70.3-11.5,16.6-21.9,41.9-25.8,62.7-2.9,15.3-2.6,48.1.5,62.5,5.1,23.8,15.4,47,29,65a166.87,166.87,0,0,0,81.6,58.9c15.5,5.1,27.4,7.1,46,7.8A162.72,162.72,0,0,0,651.4,414c13.9-27.1,19.5-52.1,18.3-81.9-1.6-41-17.3-78.1-45.5-107.3q-39.75-41.1-94.6-49.3C517,173.7,492.9,173.7,480.9,175.5Z" transform="translate(-65.48 -63.46)"/></svg>